<?xml version="1.0" standalone="no"?>
<!DOCTYPE svg PUBLIC "-//W3C//DTD SVG 1.1//EN" "http://www.w3.org/Graphics/SVG/1.1/DTD/svg11.dtd" >
<svg xmlns="http://www.w3.org/2000/svg" xmlns:xlink="http://www.w3.org/1999/xlink" version="1.1">
<metadata>
Created by FontForge 20170924 at Wed Apr 18 15:59:20 2012
 By www-data
Copyright (c) 2011 by Atipus. All rights reserved.
</metadata>
<defs>
<font id="Blanch-CapsLight" horiz-adv-x="833" >
  <font-face 
    font-family="Blanch Caps Light"
    font-weight="400"
    font-variant="small-caps"
    font-stretch="normal"
    units-per-em="1000"
    panose-1="2 11 3 4 0 0 0 2 0 4"
    ascent="700"
    descent="-300"
    x-height="493"
    cap-height="494"
    bbox="-49.375 -134 458 648"
    underline-thickness="50"
    underline-position="-100"
    stemh="20"
    stemv="59"
    unicode-range="U+0020-20AC"
  />
<missing-glyph horiz-adv-x="0" 
 />
    <glyph glyph-name=".notdef" horiz-adv-x="0" 
 />
    <glyph glyph-name=".null" horiz-adv-x="0" 
 />
    <glyph glyph-name="CR" horiz-adv-x="144" 
 />
    <glyph glyph-name="space" unicode=" " horiz-adv-x="144" 
 />
    <glyph glyph-name="exclam" unicode="!" horiz-adv-x="147" 
d="M34 491h2c2 0 4 -1 4 -4v-386c0 -3 -2 -5 -4 -5h-2c-3 0 -5 2 -5 5v386c0 3 2 4 5 4zM34 34h2c2 0 4 -2 4 -4v-90c0 -2 -2 -4 -4 -4h-2c-3 0 -5 2 -5 4v90c0 2 2 4 5 4z" />
    <glyph glyph-name="numbersign" unicode="#" horiz-adv-x="530" 
d="M396 337h-117v-182h117c2 0 4 -2 4 -4v-2c0 -3 -2 -5 -4 -5h-117v-140c0 -2 -2 -4 -4 -4h-2c-3 0 -5 2 -5 4v140h-117v-140c0 -2 -2 -4 -4 -4h-3c-2 0 -4 2 -4 4v140h-116c-3 0 -5 2 -5 5v2c0 2 2 4 5 4h116v182h-116c-3 0 -5 2 -5 4v2c0 3 2 5 5 5h116v141c0 2 2 4 4 4
h3c2 0 4 -2 4 -4v-141h117v141c0 2 2 4 5 4h2c2 0 4 -2 4 -4v-141h117c2 0 4 -2 4 -5v-2c0 -2 -2 -4 -4 -4zM268 155v182h-117v-182h117z" />
    <glyph glyph-name="dollar" unicode="$" horiz-adv-x="313" 
d="M29 381v1v-1v0zM29 381v1v-1v0zM199 384c-2 0 -4 2 -4 4v19c0 43 -35 78 -78 78s-78 -35 -78 -77v-39c0 -3 2 -9 4 -12l157 -209c3 -5 6 -13 6 -19v-38c0 -24 -9 -46 -26 -63c-16 -15 -36 -24 -57 -25v-60c0 -2 -2 -4 -5 -4h-2c-2 0 -4 2 -4 4v60c-46 3 -83 41 -83 88v19
c0 3 2 5 4 5h2c3 0 4 -2 4 -5v-19c0 -43 35 -78 78 -78s78 35 78 78v38c0 4 -2 10 -4 12l-156 210c-4 4 -6 12 -6 18v38c0 24 9 46 26 63c15 16 35 24 57 26v59c0 3 2 4 4 4h2c3 0 5 -1 5 -4v-59c46 -3 83 -42 83 -89v-19c0 -2 -2 -4 -4 -4h-3z" />
    <glyph glyph-name="ampersand" unicode="&#x26;" horiz-adv-x="371" 
d="M269 302c2 0 4 -2 4 -5v-2c0 -2 -2 -4 -4 -4h-12h-51v-287c0 -2 -2 -4 -4 -4h-85c-49 0 -88 40 -88 89v124c0 38 24 71 58 83v0c-34 13 -58 45 -58 83v0v26v0c0 49 39 88 88 88h19c2 0 4 -2 4 -4v-2c0 -2 -2 -4 -4 -4h-19v0c-43 0 -78 -35 -78 -78v0v-26v0
c1 -42 35 -77 78 -77v0h78v63c0 2 2 4 4 4h3c2 0 4 -2 4 -4v-63h63zM195 11v280h-78c-20 0 -40 -8 -55 -23c-14 -15 -23 -34 -23 -55v-124c0 -43 35 -78 78 -78h78z" />
    <glyph glyph-name="quotesingle" unicode="'" horiz-adv-x="147" 
d="M33 559h3c2 0 4 -2 4 -5v-222c0 -3 -2 -5 -4 -5h-3c-2 0 -4 2 -4 5v222c0 3 2 5 4 5z" />
    <glyph glyph-name="parenleft" unicode="(" horiz-adv-x="214" 
d="M103 11c2 0 4 -2 4 -5v-2c0 -2 -2 -4 -4 -4c-42 7 -74 44 -74 88v318c0 44 32 81 74 88c2 0 4 -2 4 -4v-2c0 -3 -2 -5 -4 -5c-36 -7 -63 -39 -63 -77v-318c0 -38 27 -70 63 -77z" />
    <glyph glyph-name="parenright" unicode=")" horiz-adv-x="213" 
d="M33 11c36 7 63 39 63 77v318c0 38 -27 70 -63 77c-3 0 -4 2 -4 5v2c0 2 1 4 4 4c42 -7 74 -44 74 -88v-318c0 -44 -32 -81 -74 -88c-3 0 -4 2 -4 4v2c0 3 1 5 4 5z" />
    <glyph glyph-name="plus" unicode="+" horiz-adv-x="278" 
d="M168 252c2 0 4 -2 4 -4v-2c0 -3 -2 -5 -4 -5h-62v-61c0 -3 -2 -5 -5 -5h-2c-2 0 -4 2 -4 5v61h-62c-2 0 -4 2 -4 5v2c0 2 2 4 4 4h62v62c0 2 2 4 4 4h2c3 0 5 -2 5 -4v-62h62z" />
    <glyph glyph-name="comma" unicode="," horiz-adv-x="147" 
d="M33 98h3c2 0 4 -2 4 -5v-222c0 -3 -2 -5 -4 -5h-3c-2 0 -4 2 -4 5v222c0 3 2 5 4 5z" />
    <glyph glyph-name="hyphen" unicode="-" horiz-adv-x="279" 
d="M171 248v-2c0 -3 -1 -5 -4 -5h-134c-3 0 -4 2 -4 5v2c0 2 1 4 4 4h134c3 0 4 -2 4 -4z" />
    <glyph glyph-name="period" unicode="." horiz-adv-x="147" 
d="M35 98c3 0 5 -2 5 -4v-90c0 -2 -2 -4 -5 -4h-2c-2 0 -4 2 -4 4v90c0 2 2 4 4 4h2z" />
    <glyph glyph-name="slash" unicode="/" horiz-adv-x="314" 
d="M195 489c0 3 2 5 4 5h2c3 0 5 -2 5 -5v-122c0 -6 -3 -14 -6 -18l-157 -210c-2 -3 -4 -9 -4 -12v-123c0 -2 -2 -4 -4 -4h-2c-2 0 -4 2 -4 4v123c0 6 2 14 6 18l156 210c2 3 4 9 4 12v122z" />
    <glyph glyph-name="zero" unicode="0" horiz-adv-x="313" 
d="M118 494c49 0 89 -40 89 -89v-316c0 -49 -40 -89 -89 -89s-89 40 -89 89v316c0 49 40 89 89 89zM118 483c-43 0 -78 -35 -78 -78v-253c2 3 5 6 8 10l3 4l137 181c6 9 8 15 8 25v0v33c0 43 -35 78 -78 78zM118 11c43 0 78 35 78 78v253c-2 -3 -5 -6 -8 -10l-3 -4
l-137 -181c-7 -10 -8 -17 -8 -29v0v-29c0 -43 35 -78 78 -78z" />
    <glyph glyph-name="one" unicode="1" horiz-adv-x="215" 
d="M96 5v478h-63c-2 0 -4 2 -4 4v3c0 2 2 4 4 4h69c2 0 5 -3 5 -6v-483c0 -3 -2 -5 -4 -5h-3c-2 0 -4 2 -4 5z" />
    <glyph glyph-name="two" unicode="2" horiz-adv-x="314" 
d="M40 11h162c2 0 4 -2 4 -4v-2c0 -3 -2 -5 -4 -5h-169c-2 0 -4 2 -4 5v27v86v9c0 6 2 14 6 18l156 210c2 3 4 8 4 12v12v1v25c0 43 -35 78 -78 78s-77 -35 -77 -78v-19c0 -2 -2 -4 -5 -4h-2c-2 0 -4 2 -4 4v19c0 49 40 89 88 89c24 0 46 -9 63 -26s26 -39 26 -63v-26v-12
c0 -6 -3 -14 -6 -19l-156 -209c-3 -3 -4 -9 -4 -12v-9v-107zM206 379v0v0v0z" />
    <glyph glyph-name="three" unicode="3" horiz-adv-x="314" 
d="M206 405v-74c0 -39 -25 -71 -59 -83c34 -13 59 -45 59 -84v-75c0 -49 -40 -89 -89 -89s-88 40 -88 89v18c0 3 2 5 4 5h2c3 0 4 -2 4 -5v-18c0 -43 35 -78 78 -78s78 35 78 78v75c0 38 -27 70 -63 77c-2 0 -4 2 -4 5v3c0 3 2 5 4 5c36 7 63 39 63 77v74
c0 43 -35 78 -78 78s-78 -35 -78 -78v-19c0 -3 -1 -4 -4 -4h-2c-2 0 -4 1 -4 4v19c0 49 39 89 88 89s89 -40 89 -89z" />
    <glyph glyph-name="four" unicode="4" horiz-adv-x="381" 
d="M205 187h62c2 0 4 -2 4 -4v-2c0 -2 -2 -4 -4 -4h-62v-172c0 -3 -2 -5 -5 -5h-2c-2 0 -4 2 -4 5v172h-161c-2 0 -4 2 -4 4v68c0 5 2 13 6 18l155 208c2 2 4 8 4 12v3c0 2 2 4 4 4h2c2 0 4 -2 4 -4v-3c0 -6 -2 -14 -6 -19l-155 -207c-2 -3 -4 -9 -4 -12v-62h155v88
c0 3 2 5 4 5h2c3 0 5 -2 5 -5v-88z" />
    <glyph glyph-name="five" unicode="5" horiz-adv-x="314" 
d="M118 302c49 0 88 -40 88 -89v-124c0 -49 -39 -89 -88 -89s-89 40 -89 89v19c0 3 2 4 4 4h3c2 0 4 -1 4 -4v-19c0 -43 35 -78 78 -78s77 35 77 78v124c0 43 -34 78 -77 78h-85c-2 0 -4 2 -4 4v195c0 2 2 4 4 4h169c2 0 4 -2 4 -4v-3c0 -2 -2 -4 -4 -4h-162v-181h78z" />
    <glyph glyph-name="six" unicode="6" horiz-adv-x="314" 
d="M118 301c49 0 89 -39 89 -88v-125c0 -49 -40 -88 -89 -88s-89 39 -89 88v317c0 48 40 88 89 88c44 0 80 -32 87 -74c1 -2 -1 -4 -3 -4h-3c-2 0 -4 2 -5 4c-7 36 -38 63 -76 63c-43 0 -78 -35 -78 -77v-150c15 28 44 46 78 46zM196 88v125c0 43 -35 78 -78 78
s-78 -35 -78 -78v-125c0 -43 35 -78 78 -78s78 35 78 78z" />
    <glyph glyph-name="seven" unicode="7" horiz-adv-x="313" 
d="M196 483h-163c-3 0 -4 2 -4 4v3c0 2 1 4 4 4h169c2 0 4 -2 4 -4v-123c0 -6 -2 -14 -6 -19l-156 -209c-2 -3 -4 -9 -4 -12v-122c0 -3 -2 -5 -4 -5h-3c-2 0 -4 2 -4 5v122c0 6 3 14 6 18l157 210c2 3 4 8 4 12v116z" />
    <glyph glyph-name="eight" unicode="8" horiz-adv-x="313" 
d="M40 406v0h-11v0c1 49 40 88 89 88c48 0 88 -39 89 -88v0h-11v0v0c-1 43 -36 77 -78 77c-43 0 -77 -34 -78 -77v0zM207 379c-1 -38 -25 -70 -59 -82c34 -13 59 -45 59 -83v-125c0 -49 -40 -89 -89 -89s-89 40 -89 89v125c0 38 25 70 59 83c-34 12 -58 44 -59 82v27h11v-27
c1 -42 35 -77 78 -77c42 0 77 35 78 77v1v0v26h11v-26v0v-1zM196 214c0 42 -35 77 -78 77s-78 -35 -78 -77v-125c0 -43 35 -78 78 -78s78 35 78 78v125z" />
    <glyph glyph-name="nine" unicode="9" horiz-adv-x="313" 
d="M117 494c49 0 89 -40 89 -89v-316c0 -49 -40 -89 -89 -89c-44 0 -80 32 -87 74c-1 2 1 4 3 4h3c2 0 4 -2 5 -4c7 -36 38 -63 76 -63c43 0 78 35 78 78v199c-15 -27 -44 -46 -78 -46c-49 0 -88 40 -88 89v74c0 49 39 89 88 89zM195 331v74c0 43 -35 78 -78 78
s-78 -35 -78 -78v-74c0 -43 35 -78 78 -78s78 35 78 78z" />
    <glyph glyph-name="colon" unicode=":" horiz-adv-x="147" 
d="M35 98c3 0 5 -2 5 -4v-90c0 -2 -2 -4 -5 -4h-2c-2 0 -4 2 -4 4v90c0 2 2 4 4 4h2zM35 380c3 0 5 -2 5 -4v-90c0 -2 -2 -4 -5 -4h-2c-2 0 -4 2 -4 4v90c0 2 2 4 4 4h2z" />
    <glyph glyph-name="semicolon" unicode=";" horiz-adv-x="147" 
d="M33 98c-2 0 -4 -2 -4 -5v-222c0 -3 2 -5 4 -5h3c2 0 4 2 4 5v222c0 3 -2 5 -4 5h-3zM35 380c3 0 5 -2 5 -4v-90c0 -2 -2 -4 -5 -4h-2c-2 0 -4 2 -4 4v90c0 2 2 4 4 4h2z" />
    <glyph glyph-name="equal" unicode="=" horiz-adv-x="279" 
d="M172 311v-2c0 -2 -2 -4 -4 -4h-135c-2 0 -4 2 -4 4v2c0 3 2 5 4 5h135c2 0 4 -2 4 -5zM172 183v-2c0 -2 -2 -4 -4 -4h-135c-2 0 -4 2 -4 4v2c0 3 2 5 4 5h135c2 0 4 -2 4 -5z" />
    <glyph glyph-name="question" unicode="?" horiz-adv-x="313" 
d="M233 378v1v-1v0zM33 37c-2 0 -4 -2 -4 -4v-90c0 -2 2 -4 4 -4h3c2 0 4 2 4 4v90c0 2 -2 4 -4 4h-3zM206 405v1v-1v0zM29 406c0 49 40 88 88 88c24 0 46 -9 63 -25c16 -17 26 -39 26 -63v-1v-12c0 -5 -3 -13 -7 -18l-155 -209c-2 -3 -4 -8 -4 -12v-5v-8v-37
c0 -3 -2 -5 -4 -5h-3c-2 0 -4 2 -4 5v37v8v5c0 6 3 14 6 19l156 208c2 3 4 9 4 12v12v1c0 43 -35 78 -78 78c-42 0 -77 -35 -77 -78v-19c0 -2 -2 -4 -4 -4h-3c-2 0 -4 2 -4 4v19z" />
    <glyph glyph-name="at" unicode="@" horiz-adv-x="604" 
d="M118 494h210c49 0 89 -40 89 -90v-184c0 -50 -40 -89 -89 -89h-23c-2 0 -4 1 -4 4v101h-157v-101c0 -3 -2 -4 -4 -4h-2c-3 0 -4 1 -4 4v140c0 49 40 89 89 89s89 -40 89 -89v-134h16c43 0 78 35 78 79v184c0 44 -35 79 -78 79h-210c-44 0 -79 -35 -79 -79v-315
c0 -43 35 -78 79 -78h145c3 0 4 -2 4 -4v-3c0 -2 -1 -4 -4 -4h-145c-50 0 -89 40 -89 89v315c0 50 39 90 89 90zM301 247v28c0 43 -35 78 -78 78c-44 0 -79 -35 -79 -78v-28h157z" />
    <glyph glyph-name="bracketleft" unicode="[" horiz-adv-x="249" 
d="M29 488c0 3 3 6 6 6h103c3 0 5 -2 5 -5v-2c0 -2 -2 -4 -5 -4h-98v-472h98c3 0 5 -2 5 -4v-3c0 -2 -2 -4 -5 -4h-103c-3 0 -6 3 -6 6v482z" />
    <glyph glyph-name="backslash" unicode="\" horiz-adv-x="314" 
d="M39 489v-122c0 -3 2 -9 4 -12l157 -210c3 -4 6 -12 6 -18v-123c0 -2 -2 -4 -5 -4h-2c-2 0 -4 2 -4 4v123c0 3 -2 9 -4 12l-156 210c-4 4 -6 12 -6 18v122c0 3 2 5 4 5h2c2 0 4 -2 4 -5z" />
    <glyph glyph-name="bracketright" unicode="]" horiz-adv-x="249" 
d="M143 6c0 -3 -3 -6 -6 -6h-103c-3 0 -5 2 -5 4v3c0 2 2 4 5 4h98v472h-98c-3 0 -5 2 -5 4v2c0 3 2 5 5 5h103c3 0 6 -3 6 -6v-482z" />
    <glyph glyph-name="asciicircum" unicode="^" horiz-adv-x="299" 
d="M164 565c1 -2 0 -3 -3 -3h-4c-2 0 -5 1 -6 3l-41 72h-29l-41 -72c-1 -2 -4 -3 -6 -3h-4c-3 0 -4 1 -2 3l44 79c1 2 4 4 6 4h35c2 0 5 -2 6 -4z" />
    <glyph glyph-name="a" unicode="a" horiz-adv-x="314" 
d="M117 494c49 0 89 -40 89 -89v-401c0 -2 -2 -4 -4 -4h-3c-2 0 -4 2 -4 4v238h-155v-238c0 -2 -2 -4 -5 -4h-2c-2 0 -4 2 -4 4v401c0 49 40 89 88 89zM40 253h155v152c0 43 -35 78 -78 78c-42 0 -77 -35 -77 -78v-152z" />
    <glyph glyph-name="b" unicode="b" horiz-adv-x="314" 
d="M118 494c49 0 88 -40 88 -89v-75c0 -38 -24 -71 -58 -83c34 -12 58 -45 58 -83v-75c0 -49 -39 -89 -88 -89h-83c-3 0 -6 3 -6 6v482c0 3 3 6 6 6h83zM196 164c0 43 -35 78 -78 78h-78v-231h78c43 0 78 35 78 78v75zM196 330v75c0 43 -35 78 -78 78h-78v-231h78
c43 0 78 35 78 78z" />
    <glyph glyph-name="c" unicode="c" horiz-adv-x="303" 
d="M200 382c-2 0 -4 2 -4 4v12v0v7c0 43 -35 78 -78 78s-78 -35 -78 -78v-316c0 -43 35 -78 78 -78s78 35 78 78v22c0 3 2 5 4 5h2c3 0 4 -2 4 -5v-22c0 -49 -39 -89 -88 -89s-89 40 -89 89v316c0 49 40 89 89 89s88 -40 88 -89v-7v0v-12c0 -2 -1 -4 -4 -4h-2z" />
    <glyph glyph-name="d" unicode="d" horiz-adv-x="314" 
d="M118 494c49 0 89 -40 89 -89v-316c0 -49 -40 -89 -89 -89h-83c-3 0 -6 3 -6 6v482c0 3 3 6 6 6h83zM196 89v316c0 43 -35 78 -78 78h-78v-472h78c43 0 78 35 78 78z" />
    <glyph glyph-name="e" unicode="e" horiz-adv-x="250" 
d="M40 483v-230h98c2 0 4 -2 4 -5v-2c0 -2 -2 -4 -4 -4h-98v-231h98c2 0 4 -2 4 -4v-3c0 -2 -2 -4 -4 -4h-104c-3 0 -5 3 -5 6v482c0 3 2 6 5 6h104c2 0 4 -2 4 -5v-2c0 -2 -2 -4 -4 -4h-98z" />
    <glyph glyph-name="f" unicode="f" horiz-adv-x="250" 
d="M138 483h-98v-230h98c2 0 4 -2 4 -5v-2c0 -2 -2 -4 -4 -4h-98v-238c0 -2 -2 -4 -5 -4h-2c-2 0 -4 2 -4 4v484c0 3 2 6 5 6h104c2 0 4 -2 4 -5v-2c0 -2 -2 -4 -4 -4z" />
    <glyph glyph-name="g" unicode="g" horiz-adv-x="313" 
d="M117 494c49 0 89 -40 89 -89v-19c0 -2 -2 -4 -5 -4h-2c-2 0 -4 2 -4 4v19c0 43 -35 78 -78 78s-78 -35 -78 -78v-316c0 -43 35 -78 78 -78s78 35 78 78v154h-47c-2 0 -4 2 -4 4v3c0 2 2 4 4 4h53c3 0 5 -2 5 -4v-161c0 -49 -40 -89 -89 -89s-88 40 -88 89v316
c0 49 39 89 88 89z" />
    <glyph glyph-name="h" unicode="h" horiz-adv-x="313" 
d="M202 494c2 0 4 -2 4 -5v-485c0 -2 -2 -4 -4 -4h-3c-2 0 -4 2 -4 4v238h-156v-238c0 -2 -1 -4 -4 -4h-2c-2 0 -4 2 -4 4v485c0 3 2 5 4 5h2c3 0 4 -2 4 -5v-237h156v237c0 3 2 5 4 5h3z" />
    <glyph glyph-name="i" unicode="i" horiz-adv-x="147" 
d="M29 4v485c0 3 2 5 4 5h2c3 0 5 -2 5 -5v-485c0 -2 -2 -4 -5 -4h-2c-2 0 -4 2 -4 4z" />
    <glyph glyph-name="j" unicode="j" horiz-adv-x="313" 
d="M202 494c2 0 4 -2 4 -5v-400c0 -49 -40 -89 -89 -89s-88 40 -88 89v22c0 3 2 4 4 4h2c3 0 5 -1 5 -4v-22c0 -43 34 -78 77 -78s78 35 78 78v400c0 3 2 5 4 5h3z" />
    <glyph glyph-name="k" unicode="k" horiz-adv-x="314" 
d="M206 330c0 -38 -24 -71 -58 -83c34 -12 58 -45 58 -83v-160c0 -2 -2 -4 -4 -4h-2c-3 0 -5 2 -5 4v160c0 43 -35 78 -77 78h-78v-238c0 -2 -2 -4 -5 -4h-2c-2 0 -4 2 -4 4v238v0v10v0v237c0 2 2 4 4 4h2c3 0 5 -2 5 -4v-237h78c42 0 77 35 77 78v159c0 2 2 4 5 4h2
c2 0 4 -2 4 -4v-159z" />
    <glyph glyph-name="l" unicode="l" horiz-adv-x="239" 
d="M29 6v483c0 3 2 5 4 5h2c3 0 5 -2 5 -5v-478h98c2 0 4 -2 4 -4v-3c0 -2 -2 -4 -4 -4h-104c-3 0 -5 3 -5 6z" />
    <glyph glyph-name="m" unicode="m" horiz-adv-x="481" 
d="M284 493c49 0 89 -40 89 -88v-401c0 -2 -2 -4 -5 -4h-2c-2 0 -4 2 -4 4v401c0 43 -35 77 -78 77s-78 -34 -78 -77v-401c0 -2 -2 -4 -4 -4h-2c-3 0 -4 2 -4 4v401c0 43 -35 77 -78 77s-78 -34 -78 -77v-401c0 -2 -2 -4 -4 -4h-3c-2 0 -4 2 -4 4v401c0 48 40 88 89 88
c38 0 71 -24 83 -58c12 34 45 58 83 58z" />
    <glyph glyph-name="n" unicode="n" horiz-adv-x="314" 
d="M195 4v401c0 43 -34 78 -77 78s-78 -35 -78 -78v-401c0 -2 -2 -4 -4 -4h-3c-2 0 -4 2 -4 4v401c0 49 40 89 89 89s88 -40 88 -89v-401c0 -2 -2 -4 -4 -4h-2c-3 0 -5 2 -5 4z" />
    <glyph glyph-name="o" unicode="o" horiz-adv-x="314" 
d="M118 0c-49 0 -89 40 -89 89v316c0 49 40 89 89 89s88 -40 88 -89v-316c0 -49 -39 -89 -88 -89zM118 483c-43 0 -78 -35 -78 -78v-316c0 -43 35 -78 78 -78s78 35 78 78v316c0 43 -35 78 -78 78z" />
    <glyph glyph-name="p" unicode="p" horiz-adv-x="293" 
d="M118 494c49 0 88 -40 88 -89v-74c0 -49 -39 -89 -88 -89h-78v-238c0 -2 -2 -4 -4 -4h-2c-3 0 -5 2 -5 4v238v0v11v0v236c0 3 2 5 5 5h84zM196 331v74c0 43 -35 78 -78 78h-78v-230h78c43 0 78 35 78 78z" />
    <glyph glyph-name="q" unicode="q" horiz-adv-x="314" 
d="M118 495c49 0 88 -40 88 -89v-317c0 -47 -37 -85 -83 -88v-59c0 -3 -2 -5 -4 -5h-2c-3 0 -5 2 -5 5v59c-46 3 -83 41 -83 88v317c0 49 40 89 89 89zM196 89v317c0 43 -35 78 -78 78s-78 -35 -78 -78v-317c0 -42 35 -77 78 -77s78 35 78 77z" />
    <glyph glyph-name="r" unicode="r" horiz-adv-x="308" 
d="M202 331c0 -39 -25 -71 -59 -84c34 -12 59 -44 59 -83v-160c0 -2 -2 -4 -5 -4h-2c-2 0 -4 2 -4 4v160c0 43 -35 78 -78 78h-78v-238c0 -2 -2 -4 -4 -4h-2c-3 0 -5 2 -5 4v484c0 3 3 6 6 6h83c49 0 89 -40 89 -89v-74zM113 253c43 0 78 35 78 78v74c0 43 -35 78 -78 78
h-78v-230h78z" />
    <glyph glyph-name="s" unicode="s" horiz-adv-x="293" 
d="M190 382c-2 0 -4 2 -4 4v19c0 43 -35 78 -78 78s-78 -35 -78 -78v-25v-1v0v-12c0 -4 2 -9 4 -12l156 -209c4 -5 6 -13 6 -19v-11h1v-2v-25c0 -24 -10 -46 -26 -63c-17 -17 -39 -26 -63 -26c-49 0 -89 40 -89 89v19c0 2 2 4 5 4h2c2 0 4 -2 4 -4v-19c0 -43 35 -78 78 -78
s78 35 78 78v26v-1v2v0v11c0 4 -2 9 -4 12l-156 209c-4 5 -6 13 -6 19v12h-1v26c0 24 10 46 26 63c17 17 39 26 63 26c49 0 89 -40 89 -89v-19c0 -2 -2 -4 -5 -4h-2zM19 379v0v0v0z" />
    <glyph glyph-name="t" unicode="t" horiz-adv-x="249" 
d="M80 4v479h-57c-2 0 -4 2 -4 4v2c0 3 2 5 4 5h124c2 0 4 -2 4 -5v-2c0 -2 -2 -4 -4 -4h-57v-479c0 -2 -1 -4 -4 -4h-2c-2 0 -4 2 -4 4z" />
    <glyph glyph-name="u" unicode="u" horiz-adv-x="314" 
d="M29 89v400c0 3 2 5 5 5h2c2 0 4 -2 4 -5v-400c0 -43 35 -78 78 -78s78 35 78 78v400c0 3 2 5 4 5h2c2 0 4 -2 4 -5v-400c0 -49 -39 -89 -88 -89s-89 40 -89 89z" />
    <glyph glyph-name="v" unicode="v" horiz-adv-x="314" 
d="M196 489c0 3 1 5 4 5h2c2 0 4 -2 4 -5v-348s0 -24 -11 -43l-55 -95c-1 -2 -2 -3 -4 -3h-36c-2 0 -4 1 -5 3l-54 95c-12 19 -12 43 -12 43v348c0 3 2 5 4 5h3c2 0 4 -2 4 -5v-348s0 -21 10 -37l53 -93h30l53 93c9 16 10 37 10 37v348z" />
    <glyph glyph-name="w" unicode="w" horiz-adv-x="480" 
d="M368 493c2 0 4 -2 4 -4v-348c0 -1 0 -24 -11 -43l-55 -96c-1 -1 -3 -2 -4 -2h-36c-2 0 -4 1 -5 2l-54 96c-3 4 -5 9 -6 13c-2 -4 -4 -9 -7 -13l-54 -96c-1 -1 -3 -2 -5 -2h-36c-1 0 -3 1 -4 2l-55 96c-11 19 -11 42 -11 43v348c0 2 2 4 4 4h2c3 0 5 -2 5 -4v-348
s0 -21 9 -38l54 -93h29l53 93c10 17 10 38 10 38v348c0 2 2 4 4 4h3c2 0 4 -2 4 -4v-348s0 -21 10 -38l53 -93h29l54 93c9 17 10 38 10 38v348c0 2 1 4 4 4h2z" />
    <glyph glyph-name="x" unicode="x" horiz-adv-x="314" 
d="M191 364v-1l-67 -118l67 -117v-1c10 -15 15 -32 15 -49v-73c0 -3 -2 -5 -4 -5h-2c-2 0 -4 2 -4 5v73c0 8 -2 17 -5 25v2l-73 129l-73 -129l-1 -2c-3 -8 -4 -17 -4 -25v-73c0 -3 -2 -5 -4 -5h-2c-3 0 -5 2 -5 5v73c0 17 5 34 15 49l1 1l66 117l-66 118l-1 1
c-10 14 -15 31 -15 49v76c0 3 2 5 5 5h2c2 0 4 -2 4 -5v-76c0 -9 1 -17 4 -25l1 -3l73 -128l73 128v3c3 8 5 16 5 25v76c0 3 2 5 4 5h2c2 0 4 -2 4 -5v-76c0 -18 -5 -35 -15 -49z" />
    <glyph glyph-name="y" unicode="y" horiz-adv-x="294" 
d="M191 494c3 0 5 -2 5 -5v-158c0 -47 -37 -86 -83 -89v-238c0 -2 -2 -4 -5 -4h-2c-2 0 -4 2 -4 4v238c-47 3 -83 42 -83 89v158c0 3 2 5 4 5h2c2 0 4 -2 4 -5v-158c0 -43 35 -78 78 -78s78 35 78 78v158c0 3 2 5 4 5h2z" />
    <glyph glyph-name="z" unicode="z" horiz-adv-x="303" 
d="M40 127v-116h163c2 0 4 -2 4 -4v-2c0 -3 -2 -5 -4 -5h-169c-3 0 -5 2 -5 5v122c0 6 3 14 7 19l156 209c2 3 4 8 4 12v116h-163c-2 0 -4 2 -4 4v2c0 3 2 5 4 5h169c2 0 4 -2 4 -5v-122c0 -6 -2 -14 -6 -19l-156 -209c-2 -3 -4 -8 -4 -12z" />
    <glyph glyph-name="exclamdown" unicode="&#xa1;" horiz-adv-x="147" 
d="M36 -60h-2c-3 0 -5 2 -5 4v387c0 2 2 4 5 4h2c2 0 4 -2 4 -4v-387c0 -2 -2 -4 -4 -4zM36 400h-2c-3 0 -5 1 -5 4v87c0 3 2 4 5 4h2c2 0 4 -1 4 -4v-87c0 -3 -2 -4 -4 -4z" />
    <glyph glyph-name="questiondown" unicode="&#xbf;" horiz-adv-x="313" 
d="M56 57v-1v1v0zM201 399h-2c-2 0 -4 1 -4 4v87c0 3 2 4 4 4h2c3 0 5 -1 5 -4v-87c0 -3 -2 -4 -5 -4zM29 29v-1v1zM206 28c0 -49 -40 -89 -89 -89c-23 0 -45 9 -62 26s-26 39 -26 63v1v11c0 6 3 14 6 19l156 208c2 3 4 9 4 13v5v7v38c0 2 2 4 4 4h2c3 0 5 -2 5 -4v-38v-7
v-5c0 -6 -3 -14 -7 -19l-155 -209c-2 -2 -4 -8 -4 -12v-11v-2c0 -42 35 -77 77 -77c43 0 78 35 78 78v19c0 2 2 4 4 4h2c3 0 5 -2 5 -4v-19z" />
    <glyph glyph-name="agrave" unicode="&#xe0;" horiz-adv-x="314" 
d="M117 494c49 0 89 -40 89 -89v-401c0 -2 -2 -4 -4 -4h-3c-2 0 -4 2 -4 4v238h-155v-238c0 -2 -2 -4 -5 -4h-2c-2 0 -4 2 -4 4v401c0 49 40 89 88 89zM40 253h155v152c0 43 -35 78 -78 78c-42 0 -77 -35 -77 -78v-152zM95 566l-44 79c-1 2 0 3 2 3h4c2 0 5 -1 6 -3l45 -79
c1 -2 0 -4 -2 -4h-4c-3 0 -6 2 -7 4z" />
    <glyph glyph-name="aacute" unicode="&#xe1;" horiz-adv-x="314" 
d="M117 494c49 0 89 -40 89 -89v-401c0 -2 -2 -4 -4 -4h-3c-2 0 -4 2 -4 4v238h-155v-238c0 -2 -2 -4 -5 -4h-2c-2 0 -4 2 -4 4v401c0 49 40 89 88 89zM40 253h155v152c0 43 -35 78 -78 78c-42 0 -77 -35 -77 -78v-152zM125 562c-2 0 -3 2 -2 4l44 79c1 2 4 3 7 3h4
c2 0 3 -1 2 -3l-44 -79c-2 -2 -4 -4 -7 -4h-4z" />
    <glyph glyph-name="acircumflex" unicode="&#xe2;" horiz-adv-x="314" 
d="M117 494c49 0 89 -40 89 -89v-401c0 -2 -2 -4 -4 -4h-3c-2 0 -4 2 -4 4v238h-155v-238c0 -2 -2 -4 -5 -4h-2c-2 0 -4 2 -4 4v401c0 49 40 89 88 89zM40 253h155v152c0 43 -35 78 -78 78c-42 0 -77 -35 -77 -78v-152zM52 562c-2 0 -3 2 -2 4l44 79c1 2 4 3 7 3h34
c3 0 5 -1 7 -3l44 -79c1 -2 0 -4 -2 -4h-4c-3 0 -6 2 -7 4l-40 72h-30l-41 -72c-1 -2 -4 -4 -6 -4h-4z" />
    <glyph glyph-name="adieresis" unicode="&#xe4;" horiz-adv-x="314" 
d="M117 494c49 0 89 -40 89 -89v-401c0 -2 -2 -4 -4 -4h-3c-2 0 -4 2 -4 4v238h-155v-238c0 -2 -2 -4 -5 -4h-2c-2 0 -4 2 -4 4v401c0 49 40 89 88 89zM40 253h155v152c0 43 -35 78 -78 78c-42 0 -77 -35 -77 -78v-152zM66 561c-3 0 -5 2 -5 4v37c0 2 2 4 5 4h2
c2 0 4 -2 4 -4v-37c0 -2 -2 -4 -4 -4h-2zM168 561c-2 0 -4 2 -4 4v37c0 2 2 4 4 4h2c3 0 5 -2 5 -4v-37c0 -2 -2 -4 -5 -4h-2z" />
    <glyph glyph-name="ccedilla" unicode="&#xe7;" horiz-adv-x="313" 
d="M206 405v-8h-11v8c0 43 -35 78 -78 78s-77 -35 -77 -78v-317c0 -43 34 -77 77 -77s78 34 78 77v23c0 2 2 4 4 4h3c2 0 4 -2 4 -4v-23c0 -47 -37 -85 -83 -88v-58c0 -2 -2 -4 -5 -4h-2c-2 0 -4 2 -4 4v58c-46 3 -83 41 -83 88v317c0 49 39 88 88 88s89 -39 89 -88z
M199 381c-2 0 -4 2 -4 5v11h11v-11c0 -3 -2 -5 -4 -5h-3z" />
    <glyph glyph-name="egrave" unicode="&#xe8;" horiz-adv-x="250" 
d="M13 483v-230h98c2 0 4 -2 4 -5v-2c0 -2 -2 -4 -4 -4h-98v-231h98c2 0 4 -2 4 -4v-3c0 -2 -2 -4 -4 -4h-104c-3 0 -5 3 -5 6v482c0 3 2 6 5 6h104c2 0 4 -2 4 -5v-2c0 -2 -2 -4 -4 -4h-98zM47 566l-44 79c-1 2 0 3 2 3h4c2 0 5 -1 6 -3l45 -79c1 -2 0 -4 -2 -4h-4
c-3 0 -6 2 -7 4z" />
    <glyph glyph-name="eacute" unicode="&#xe9;" horiz-adv-x="269" 
d="M40 483v-230h98c2 0 4 -2 4 -5v-2c0 -2 -2 -4 -4 -4h-98v-231h98c2 0 4 -2 4 -4v-3c0 -2 -2 -4 -4 -4h-104c-3 0 -5 3 -5 6v482c0 3 2 6 5 6h104c2 0 4 -2 4 -5v-2c0 -2 -2 -4 -4 -4h-98zM86 562c-2 0 -3 2 -2 4l44 79c1 2 4 3 7 3h4c2 0 3 -1 2 -3l-44 -79
c-2 -2 -4 -4 -7 -4h-4z" />
    <glyph glyph-name="ecircumflex" unicode="&#xea;" horiz-adv-x="250" 
d="M26 483v-230h98c2 0 4 -2 4 -5v-2c0 -2 -2 -4 -4 -4h-98v-231h98c2 0 4 -2 4 -4v-3c0 -2 -2 -4 -4 -4h-104c-3 0 -5 3 -5 6v482c0 3 2 6 5 6h104c2 0 4 -2 4 -5v-2c0 -2 -2 -4 -4 -4h-98zM140 565c1 -2 0 -3 -3 -3h-4c-2 0 -5 1 -6 3l-41 72h-29l-41 -72
c-1 -2 -4 -3 -6 -3h-4c-3 0 -4 1 -2 3l44 79c1 2 4 4 6 4h35c2 0 5 -2 6 -4z" />
    <glyph glyph-name="edieresis" unicode="&#xeb;" horiz-adv-x="250" 
d="M41 483v-230h98c2 0 4 -2 4 -5v-2c0 -2 -2 -4 -4 -4h-98v-231h98c2 0 4 -2 4 -4v-3c0 -2 -2 -4 -4 -4h-104c-3 0 -5 3 -5 6v482c0 3 2 6 5 6h104c2 0 4 -2 4 -5v-2c0 -2 -2 -4 -4 -4h-98zM34 561c-3 0 -5 2 -5 4v37c0 2 2 4 5 4h2c2 0 4 -2 4 -4v-37c0 -2 -2 -4 -4 -4h-2
zM136 561c-2 0 -4 2 -4 4v37c0 2 2 4 4 4h2c3 0 5 -2 5 -4v-37c0 -2 -2 -4 -5 -4h-2z" />
    <glyph glyph-name="igrave" unicode="&#xec;" horiz-adv-x="147" 
d="M14 4v485c0 3 2 5 4 5h2c3 0 5 -2 5 -5v-485c0 -2 -2 -4 -5 -4h-2c-2 0 -4 2 -4 4zM-34 644l44 -79c1 -2 0 -3 -2 -3h-4c-3 0 -6 1 -7 3l-44 79c-1 2 0 4 2 4h4c3 0 5 -2 7 -4z" />
    <glyph glyph-name="iacute" unicode="&#xed;" horiz-adv-x="147" 
d="M24 4c0 -2 2 -4 4 -4h2c3 0 5 2 5 4v485c0 3 -2 5 -5 5h-2c-2 0 -4 -2 -4 -5v-485zM80 644c1 3 4 4 6 4h4c3 0 4 -1 2 -4l-44 -78c-1 -2 -4 -4 -6 -4h-5c-2 0 -3 2 -2 4z" />
    <glyph glyph-name="icircumflex" unicode="&#xee;" horiz-adv-x="147" 
d="M14 4c0 -2 2 -4 4 -4h2c3 0 5 2 5 4v485c0 3 -2 5 -5 5h-2c-2 0 -4 -2 -4 -5v-485zM87 566c2 -2 1 -4 -2 -4h-4c-2 0 -5 2 -6 4l-41 71h-29l-41 -71c-1 -2 -4 -4 -6 -4h-4c-3 0 -4 2 -3 4l45 78c1 2 4 4 6 4h35c2 0 5 -2 6 -4z" />
    <glyph glyph-name="idieresis" unicode="&#xef;" horiz-adv-x="147" 
d="M30 4c0 -2 2 -4 4 -4h2c3 0 5 2 5 4v485c0 3 -2 5 -5 5h-2c-2 0 -4 -2 -4 -5v-485zM-17 561c-3 0 -5 2 -5 4v37c0 2 2 4 5 4h2c2 0 4 -2 4 -4v-37c0 -2 -2 -4 -4 -4h-2zM85 561c-2 0 -4 2 -4 4v37c0 2 2 4 4 4h2c3 0 5 -2 5 -4v-37c0 -2 -2 -4 -5 -4h-2z" />
    <glyph glyph-name="ntilde" unicode="&#xf1;" horiz-adv-x="313" 
d="M195 4v401c0 43 -34 78 -77 78s-78 -35 -78 -78v-401c0 -2 -2 -4 -4 -4h-3c-2 0 -4 2 -4 4v401c0 49 40 89 89 89s88 -40 88 -89v-401c0 -2 -2 -4 -4 -4h-2c-3 0 -5 2 -5 4zM65 572h105c2 0 4 -2 4 -4v-3c0 -2 -2 -4 -4 -4h-105c-2 0 -4 2 -4 4v3c0 2 2 4 4 4z" />
    <glyph glyph-name="ograve" unicode="&#xf2;" horiz-adv-x="314" 
d="M118 0c49 0 88 40 88 89v316c0 49 -39 89 -88 89s-89 -40 -89 -89v-316c0 -49 40 -89 89 -89zM118 483c43 0 78 -35 78 -78v-316c0 -43 -35 -78 -78 -78s-78 35 -78 78v316c0 43 35 78 78 78zM95 566l-44 79c-1 2 0 3 2 3h4c2 0 5 -1 6 -3l45 -79c1 -2 0 -4 -2 -4h-4
c-3 0 -6 2 -7 4z" />
    <glyph glyph-name="oacute" unicode="&#xf3;" horiz-adv-x="314" 
d="M118 0c49 0 88 40 88 89v316c0 49 -39 89 -88 89s-89 -40 -89 -89v-316c0 -49 40 -89 89 -89zM118 483c43 0 78 -35 78 -78v-316c0 -43 -35 -78 -78 -78s-78 35 -78 78v316c0 43 35 78 78 78zM125 562c-2 0 -3 2 -2 4l44 79c1 2 4 3 7 3h4c2 0 3 -1 2 -3l-44 -79
c-2 -2 -4 -4 -7 -4h-4z" />
    <glyph glyph-name="ocircumflex" unicode="&#xf4;" horiz-adv-x="313" 
d="M118 0c49 0 88 40 88 89v316c0 49 -39 89 -88 89s-89 -40 -89 -89v-316c0 -49 40 -89 89 -89zM118 483c43 0 78 -35 78 -78v-316c0 -43 -35 -78 -78 -78s-78 35 -78 78v316c0 43 35 78 78 78zM52 562c-2 0 -3 2 -2 4l44 79c1 2 4 3 7 3h34c3 0 5 -1 7 -3l44 -79
c1 -2 0 -4 -2 -4h-4c-3 0 -6 2 -7 4l-40 72h-30l-41 -72c-1 -2 -4 -4 -6 -4h-4z" />
    <glyph glyph-name="odieresis" unicode="&#xf6;" horiz-adv-x="314" 
d="M118 0c49 0 88 40 88 89v316c0 49 -39 89 -88 89s-89 -40 -89 -89v-316c0 -49 40 -89 89 -89zM118 483c43 0 78 -35 78 -78v-316c0 -43 -35 -78 -78 -78s-78 35 -78 78v316c0 43 35 78 78 78zM66 561c-3 0 -5 2 -5 4v37c0 2 2 4 5 4h2c2 0 4 -2 4 -4v-37
c0 -2 -2 -4 -4 -4h-2zM168 561c-2 0 -4 2 -4 4v37c0 2 2 4 4 4h2c3 0 5 -2 5 -4v-37c0 -2 -2 -4 -5 -4h-2z" />
    <glyph glyph-name="ugrave" unicode="&#xf9;" horiz-adv-x="314" 
d="M29 89c0 -49 40 -89 89 -89s88 40 88 89v400c0 3 -2 5 -4 5h-2c-2 0 -4 -2 -4 -5v-400c0 -43 -35 -78 -78 -78s-78 35 -78 78v400c0 3 -2 5 -4 5h-2c-3 0 -5 -2 -5 -5v-400zM95 566l-44 79c-1 2 0 3 2 3h4c2 0 5 -1 6 -3l45 -79c1 -2 0 -4 -2 -4h-4c-3 0 -6 2 -7 4z" />
    <glyph glyph-name="uacute" unicode="&#xfa;" horiz-adv-x="314" 
d="M29 89c0 -49 40 -89 89 -89s88 40 88 89v400c0 3 -2 5 -4 5h-2c-2 0 -4 -2 -4 -5v-400c0 -43 -35 -78 -78 -78s-78 35 -78 78v400c0 3 -2 5 -4 5h-2c-3 0 -5 -2 -5 -5v-400zM125 562c-2 0 -3 2 -2 4l44 79c1 2 4 3 7 3h4c2 0 3 -1 2 -3l-44 -79c-2 -2 -4 -4 -7 -4h-4z
" />
    <glyph glyph-name="ucircumflex" unicode="&#xfb;" horiz-adv-x="314" 
d="M29 89c0 -49 40 -89 89 -89s88 40 88 89v400c0 3 -2 5 -4 5h-2c-2 0 -4 -2 -4 -5v-400c0 -43 -35 -78 -78 -78s-78 35 -78 78v400c0 3 -2 5 -4 5h-2c-3 0 -5 -2 -5 -5v-400zM52 562c-2 0 -3 2 -2 4l44 79c1 2 4 3 7 3h34c3 0 5 -1 7 -3l44 -79c1 -2 0 -4 -2 -4h-4
c-3 0 -6 2 -7 4l-40 72h-30l-41 -72c-1 -2 -4 -4 -6 -4h-4z" />
    <glyph glyph-name="udieresis" unicode="&#xfc;" horiz-adv-x="314" 
d="M29 89c0 -49 40 -89 89 -89s88 40 88 89v400c0 3 -2 5 -4 5h-2c-2 0 -4 -2 -4 -5v-400c0 -43 -35 -78 -78 -78s-78 35 -78 78v400c0 3 -2 5 -4 5h-2c-3 0 -5 -2 -5 -5v-400zM66 561c-3 0 -5 2 -5 4v37c0 2 2 4 5 4h2c2 0 4 -2 4 -4v-37c0 -2 -2 -4 -4 -4h-2zM168 561
c-2 0 -4 2 -4 4v37c0 2 2 4 4 4h2c3 0 5 -2 5 -4v-37c0 -2 -2 -4 -5 -4h-2z" />
    <glyph glyph-name="percent" unicode="%" horiz-adv-x="566" 
d="M370 203c49 0 88 -40 88 -88v-26c0 -49 -39 -89 -88 -89s-89 40 -89 89v26c0 48 40 88 89 88zM448 89v26c0 42 -35 77 -78 77s-78 -35 -78 -77v-26c0 -43 35 -78 78 -78s78 35 78 78zM118 494c48 0 88 -40 88 -89v-25c0 -49 -40 -89 -88 -89c-49 0 -89 40 -89 89v25
c0 49 40 89 89 89zM195 380v25c0 43 -34 78 -77 78s-78 -35 -78 -78v-25c0 -43 35 -78 78 -78s77 35 77 78zM322 490c0 2 2 4 4 4h2c2 0 4 -2 4 -4v-123c0 -6 -2 -14 -6 -18l-156 -210c-2 -3 -4 -8 -4 -12v-122c0 -3 -2 -5 -4 -5h-2c-3 0 -5 2 -5 5v122c0 6 3 14 6 19
l157 209c2 3 4 9 4 12v123z" />
    <glyph glyph-name="A" unicode="A" horiz-adv-x="314" 
d="M117 494c49 0 89 -40 89 -89v-401c0 -2 -2 -4 -4 -4h-3c-2 0 -4 2 -4 4v238h-155v-238c0 -2 -2 -4 -5 -4h-2c-2 0 -4 2 -4 4v401c0 49 40 89 88 89zM40 253h155v152c0 43 -35 78 -78 78c-42 0 -77 -35 -77 -78v-152z" />
    <glyph glyph-name="Aacute" unicode="&#xc1;" horiz-adv-x="314" 
d="M117 494c49 0 89 -40 89 -89v-401c0 -2 -2 -4 -4 -4h-3c-2 0 -4 2 -4 4v238h-155v-238c0 -2 -2 -4 -5 -4h-2c-2 0 -4 2 -4 4v401c0 49 40 89 88 89zM40 253h155v152c0 43 -35 78 -78 78c-42 0 -77 -35 -77 -78v-152zM125 562c-2 0 -3 2 -2 4l44 79c1 2 4 3 7 3h4
c2 0 3 -1 2 -3l-44 -79c-2 -2 -4 -4 -7 -4h-4z" />
    <glyph glyph-name="Abreve" unicode="&#x102;" 
 />
    <glyph glyph-name="Acircumflex" unicode="&#xc2;" horiz-adv-x="314" 
d="M117 494c49 0 89 -40 89 -89v-401c0 -2 -2 -4 -4 -4h-3c-2 0 -4 2 -4 4v238h-155v-238c0 -2 -2 -4 -5 -4h-2c-2 0 -4 2 -4 4v401c0 49 40 89 88 89zM40 253h155v152c0 43 -35 78 -78 78c-42 0 -77 -35 -77 -78v-152zM52 562c-2 0 -3 2 -2 4l44 79c1 2 4 3 7 3h34
c3 0 5 -1 7 -3l44 -79c1 -2 0 -4 -2 -4h-4c-3 0 -6 2 -7 4l-40 72h-30l-41 -72c-1 -2 -4 -4 -6 -4h-4z" />
    <glyph glyph-name="Agrave" unicode="&#xc0;" horiz-adv-x="314" 
d="M117 494c49 0 89 -40 89 -89v-401c0 -2 -2 -4 -4 -4h-3c-2 0 -4 2 -4 4v238h-155v-238c0 -2 -2 -4 -5 -4h-2c-2 0 -4 2 -4 4v401c0 49 40 89 88 89zM40 253h155v152c0 43 -35 78 -78 78c-42 0 -77 -35 -77 -78v-152zM95 566l-44 79c-1 2 0 3 2 3h4c2 0 5 -1 6 -3l45 -79
c1 -2 0 -4 -2 -4h-4c-3 0 -6 2 -7 4z" />
    <glyph glyph-name="Adieresis" unicode="&#xc4;" horiz-adv-x="314" 
d="M117 494c49 0 89 -40 89 -89v-401c0 -2 -2 -4 -4 -4h-3c-2 0 -4 2 -4 4v238h-155v-238c0 -2 -2 -4 -5 -4h-2c-2 0 -4 2 -4 4v401c0 49 40 89 88 89zM40 253h155v152c0 43 -35 78 -78 78c-42 0 -77 -35 -77 -78v-152zM66 561c-3 0 -5 2 -5 4v37c0 2 2 4 5 4h2
c2 0 4 -2 4 -4v-37c0 -2 -2 -4 -4 -4h-2zM168 561c-2 0 -4 2 -4 4v37c0 2 2 4 4 4h2c3 0 5 -2 5 -4v-37c0 -2 -2 -4 -5 -4h-2z" />
    <glyph glyph-name="Amacron" unicode="&#x100;" 
 />
    <glyph glyph-name="Aogonek" unicode="&#x104;" 
 />
    <glyph glyph-name="Aring" unicode="&#xc5;" 
 />
    <glyph glyph-name="Atilde" unicode="&#xc3;" 
 />
    <glyph glyph-name="AE" unicode="&#xc6;" 
 />
    <glyph glyph-name="AEacute" unicode="&#x1fc;" 
 />
    <glyph glyph-name="B" unicode="B" horiz-adv-x="314" 
d="M118 494c49 0 88 -40 88 -89v-75c0 -38 -24 -71 -58 -83c34 -12 58 -45 58 -83v-75c0 -49 -39 -89 -88 -89h-83c-3 0 -6 3 -6 6v482c0 3 3 6 6 6h83zM196 164c0 43 -35 78 -78 78h-78v-231h78c43 0 78 35 78 78v75zM196 330v75c0 43 -35 78 -78 78h-78v-231h78
c43 0 78 35 78 78z" />
    <glyph glyph-name="C" unicode="C" horiz-adv-x="303" 
d="M200 382c-2 0 -4 2 -4 4v12v0v7c0 43 -35 78 -78 78s-78 -35 -78 -78v-316c0 -43 35 -78 78 -78s78 35 78 78v22c0 3 2 5 4 5h2c3 0 4 -2 4 -5v-22c0 -49 -39 -89 -88 -89s-89 40 -89 89v316c0 49 40 89 89 89s88 -40 88 -89v-7v0v-12c0 -2 -1 -4 -4 -4h-2z" />
    <glyph glyph-name="Cacute" unicode="&#x106;" 
 />
    <glyph glyph-name="Ccaron" unicode="&#x10c;" 
 />
    <glyph glyph-name="Ccedilla" unicode="&#xc7;" horiz-adv-x="313" 
d="M206 405v-8h-11v8c0 43 -35 78 -78 78s-77 -35 -77 -78v-317c0 -43 34 -77 77 -77s78 34 78 77v23c0 2 2 4 4 4h3c2 0 4 -2 4 -4v-23c0 -47 -37 -85 -83 -88v-58c0 -2 -2 -4 -5 -4h-2c-2 0 -4 2 -4 4v58c-46 3 -83 41 -83 88v317c0 49 39 88 88 88s89 -39 89 -88z
M199 381c-2 0 -4 2 -4 5v11h11v-11c0 -3 -2 -5 -4 -5h-3z" />
    <glyph glyph-name="Ccircumflex" unicode="&#x108;" 
 />
    <glyph glyph-name="Cdotaccent" unicode="&#x10a;" 
 />
    <glyph glyph-name="D" unicode="D" horiz-adv-x="314" 
d="M118 494c49 0 89 -40 89 -89v-316c0 -49 -40 -89 -89 -89h-83c-3 0 -6 3 -6 6v482c0 3 3 6 6 6h83zM196 89v316c0 43 -35 78 -78 78h-78v-472h78c43 0 78 35 78 78z" />
    <glyph glyph-name="Dcaron" unicode="&#x10e;" 
 />
    <glyph glyph-name="Dcroat" unicode="&#x110;" 
 />
    <glyph glyph-name="E" unicode="E" horiz-adv-x="250" 
d="M40 483v-230h98c2 0 4 -2 4 -5v-2c0 -2 -2 -4 -4 -4h-98v-231h98c2 0 4 -2 4 -4v-3c0 -2 -2 -4 -4 -4h-104c-3 0 -5 3 -5 6v482c0 3 2 6 5 6h104c2 0 4 -2 4 -5v-2c0 -2 -2 -4 -4 -4h-98z" />
    <glyph glyph-name="Eacute" unicode="&#xc9;" horiz-adv-x="269" 
d="M40 483v-230h98c2 0 4 -2 4 -5v-2c0 -2 -2 -4 -4 -4h-98v-231h98c2 0 4 -2 4 -4v-3c0 -2 -2 -4 -4 -4h-104c-3 0 -5 3 -5 6v482c0 3 2 6 5 6h104c2 0 4 -2 4 -5v-2c0 -2 -2 -4 -4 -4h-98zM86 562c-2 0 -3 2 -2 4l44 79c1 2 4 3 7 3h4c2 0 3 -1 2 -3l-44 -79
c-2 -2 -4 -4 -7 -4h-4z" />
    <glyph glyph-name="Ebreve" unicode="&#x114;" 
 />
    <glyph glyph-name="Ecircumflex" unicode="&#xca;" horiz-adv-x="250" 
d="M26 483v-230h98c2 0 4 -2 4 -5v-2c0 -2 -2 -4 -4 -4h-98v-231h98c2 0 4 -2 4 -4v-3c0 -2 -2 -4 -4 -4h-104c-3 0 -5 3 -5 6v482c0 3 2 6 5 6h104c2 0 4 -2 4 -5v-2c0 -2 -2 -4 -4 -4h-98zM140 565c1 -2 0 -3 -3 -3h-4c-2 0 -5 1 -6 3l-41 72h-29l-41 -72
c-1 -2 -4 -3 -6 -3h-4c-3 0 -4 1 -2 3l44 79c1 2 4 4 6 4h35c2 0 5 -2 6 -4z" />
    <glyph glyph-name="Edieresis" unicode="&#xcb;" horiz-adv-x="250" 
d="M41 483v-230h98c2 0 4 -2 4 -5v-2c0 -2 -2 -4 -4 -4h-98v-231h98c2 0 4 -2 4 -4v-3c0 -2 -2 -4 -4 -4h-104c-3 0 -5 3 -5 6v482c0 3 2 6 5 6h104c2 0 4 -2 4 -5v-2c0 -2 -2 -4 -4 -4h-98zM34 561c-3 0 -5 2 -5 4v37c0 2 2 4 5 4h2c2 0 4 -2 4 -4v-37c0 -2 -2 -4 -4 -4h-2
zM136 561c-2 0 -4 2 -4 4v37c0 2 2 4 4 4h2c3 0 5 -2 5 -4v-37c0 -2 -2 -4 -5 -4h-2z" />
    <glyph glyph-name="Edotaccent" unicode="&#x116;" 
 />
    <glyph glyph-name="Egrave" unicode="&#xc8;" horiz-adv-x="250" 
d="M13 483v-230h98c2 0 4 -2 4 -5v-2c0 -2 -2 -4 -4 -4h-98v-231h98c2 0 4 -2 4 -4v-3c0 -2 -2 -4 -4 -4h-104c-3 0 -5 3 -5 6v482c0 3 2 6 5 6h104c2 0 4 -2 4 -5v-2c0 -2 -2 -4 -4 -4h-98zM47 566l-44 79c-1 2 0 3 2 3h4c2 0 5 -1 6 -3l45 -79c1 -2 0 -4 -2 -4h-4
c-3 0 -6 2 -7 4z" />
    <glyph glyph-name="Emacron" unicode="&#x112;" 
 />
    <glyph glyph-name="Eogonek" unicode="&#x118;" 
 />
    <glyph glyph-name="F" unicode="F" horiz-adv-x="250" 
d="M138 483h-98v-230h98c2 0 4 -2 4 -5v-2c0 -2 -2 -4 -4 -4h-98v-238c0 -2 -2 -4 -5 -4h-2c-2 0 -4 2 -4 4v484c0 3 2 6 5 6h104c2 0 4 -2 4 -5v-2c0 -2 -2 -4 -4 -4z" />
    <glyph glyph-name="G" unicode="G" horiz-adv-x="313" 
d="M117 494c49 0 89 -40 89 -89v-19c0 -2 -2 -4 -5 -4h-2c-2 0 -4 2 -4 4v19c0 43 -35 78 -78 78s-78 -35 -78 -78v-316c0 -43 35 -78 78 -78s78 35 78 78v154h-47c-2 0 -4 2 -4 4v3c0 2 2 4 4 4h53c3 0 5 -2 5 -4v-161c0 -49 -40 -89 -89 -89s-88 40 -88 89v316
c0 49 39 89 88 89z" />
    <glyph glyph-name="Gbreve" unicode="&#x11e;" 
 />
    <glyph glyph-name="Gcircumflex" unicode="&#x11c;" 
 />
    <glyph glyph-name="Gcommaaccent" unicode="&#x122;" 
 />
    <glyph glyph-name="Gdotaccent" unicode="&#x120;" 
 />
    <glyph glyph-name="H" unicode="H" horiz-adv-x="313" 
d="M202 494c2 0 4 -2 4 -5v-485c0 -2 -2 -4 -4 -4h-3c-2 0 -4 2 -4 4v238h-156v-238c0 -2 -1 -4 -4 -4h-2c-2 0 -4 2 -4 4v485c0 3 2 5 4 5h2c3 0 4 -2 4 -5v-237h156v237c0 3 2 5 4 5h3z" />
    <glyph glyph-name="Hbar" unicode="&#x126;" 
 />
    <glyph glyph-name="Hcircumflex" unicode="&#x124;" 
 />
    <glyph glyph-name="I" unicode="I" horiz-adv-x="147" 
d="M29 4v485c0 3 2 5 4 5h2c3 0 5 -2 5 -5v-485c0 -2 -2 -4 -5 -4h-2c-2 0 -4 2 -4 4z" />
    <glyph glyph-name="Iacute" unicode="&#xcd;" horiz-adv-x="147" 
d="M24 4c0 -2 2 -4 4 -4h2c3 0 5 2 5 4v485c0 3 -2 5 -5 5h-2c-2 0 -4 -2 -4 -5v-485zM80 644c1 3 4 4 6 4h4c3 0 4 -1 2 -4l-44 -78c-1 -2 -4 -4 -6 -4h-5c-2 0 -3 2 -2 4z" />
    <glyph glyph-name="Ibreve" unicode="&#x12c;" 
 />
    <glyph glyph-name="Icircumflex" unicode="&#xce;" horiz-adv-x="147" 
d="M14 4c0 -2 2 -4 4 -4h2c3 0 5 2 5 4v485c0 3 -2 5 -5 5h-2c-2 0 -4 -2 -4 -5v-485zM87 566c2 -2 1 -4 -2 -4h-4c-2 0 -5 2 -6 4l-41 71h-29l-41 -71c-1 -2 -4 -4 -6 -4h-4c-3 0 -4 2 -3 4l45 78c1 2 4 4 6 4h35c2 0 5 -2 6 -4z" />
    <glyph glyph-name="Idieresis" unicode="&#xcf;" horiz-adv-x="147" 
d="M30 4c0 -2 2 -4 4 -4h2c3 0 5 2 5 4v485c0 3 -2 5 -5 5h-2c-2 0 -4 -2 -4 -5v-485zM-17 561c-3 0 -5 2 -5 4v37c0 2 2 4 5 4h2c2 0 4 -2 4 -4v-37c0 -2 -2 -4 -4 -4h-2zM85 561c-2 0 -4 2 -4 4v37c0 2 2 4 4 4h2c3 0 5 -2 5 -4v-37c0 -2 -2 -4 -5 -4h-2z" />
    <glyph glyph-name="Idotaccent" unicode="&#x130;" 
 />
    <glyph glyph-name="Igrave" unicode="&#xcc;" horiz-adv-x="147" 
d="M14 4v485c0 3 2 5 4 5h2c3 0 5 -2 5 -5v-485c0 -2 -2 -4 -5 -4h-2c-2 0 -4 2 -4 4zM-34 644l44 -79c1 -2 0 -3 -2 -3h-4c-3 0 -6 1 -7 3l-44 79c-1 2 0 4 2 4h4c3 0 5 -2 7 -4z" />
    <glyph glyph-name="Imacron" 
 />
    <glyph glyph-name="Iogonek" unicode="&#x12e;" 
 />
    <glyph glyph-name="Itilde" unicode="&#x128;" 
 />
    <glyph glyph-name="IJ" unicode="&#x132;" 
 />
    <glyph glyph-name="J" unicode="J" horiz-adv-x="313" 
d="M202 494c2 0 4 -2 4 -5v-400c0 -49 -40 -89 -89 -89s-88 40 -88 89v22c0 3 2 4 4 4h2c3 0 5 -1 5 -4v-22c0 -43 34 -78 77 -78s78 35 78 78v400c0 3 2 5 4 5h3z" />
    <glyph glyph-name="Jcircumflex" unicode="&#x134;" 
 />
    <glyph glyph-name="K" unicode="K" horiz-adv-x="314" 
d="M206 330c0 -38 -24 -71 -58 -83c34 -12 58 -45 58 -83v-160c0 -2 -2 -4 -4 -4h-2c-3 0 -5 2 -5 4v160c0 43 -35 78 -77 78h-78v-238c0 -2 -2 -4 -5 -4h-2c-2 0 -4 2 -4 4v238v0v10v0v237c0 2 2 4 4 4h2c3 0 5 -2 5 -4v-237h78c42 0 77 35 77 78v159c0 2 2 4 5 4h2
c2 0 4 -2 4 -4v-159z" />
    <glyph glyph-name="Kcommaaccent" unicode="&#x136;" 
 />
    <glyph glyph-name="K.alt" 
 />
    <glyph glyph-name="Kcommaaccent.alt" 
 />
    <glyph glyph-name="L" unicode="L" horiz-adv-x="239" 
d="M29 6v483c0 3 2 5 4 5h2c3 0 5 -2 5 -5v-478h98c2 0 4 -2 4 -4v-3c0 -2 -2 -4 -4 -4h-104c-3 0 -5 3 -5 6z" />
    <glyph glyph-name="Lacute" unicode="&#x139;" 
 />
    <glyph glyph-name="Lcaron" unicode="&#x13d;" 
 />
    <glyph glyph-name="Lcommaaccent" unicode="&#x13b;" 
 />
    <glyph glyph-name="Ldot" unicode="&#x13f;" 
 />
    <glyph glyph-name="Lslash" unicode="&#x141;" 
 />
    <glyph glyph-name="M" unicode="M" horiz-adv-x="481" 
d="M284 493c49 0 89 -40 89 -88v-401c0 -2 -2 -4 -5 -4h-2c-2 0 -4 2 -4 4v401c0 43 -35 77 -78 77s-78 -34 -78 -77v-401c0 -2 -2 -4 -4 -4h-2c-3 0 -4 2 -4 4v401c0 43 -35 77 -78 77s-78 -34 -78 -77v-401c0 -2 -2 -4 -4 -4h-3c-2 0 -4 2 -4 4v401c0 48 40 88 89 88
c38 0 71 -24 83 -58c12 34 45 58 83 58z" />
    <glyph glyph-name="N" unicode="N" horiz-adv-x="314" 
d="M195 4v401c0 43 -34 78 -77 78s-78 -35 -78 -78v-401c0 -2 -2 -4 -4 -4h-3c-2 0 -4 2 -4 4v401c0 49 40 89 89 89s88 -40 88 -89v-401c0 -2 -2 -4 -4 -4h-2c-3 0 -5 2 -5 4z" />
    <glyph glyph-name="Nacute" unicode="&#x143;" 
 />
    <glyph glyph-name="Ncaron" unicode="&#x147;" 
 />
    <glyph glyph-name="Ncommaaccent" unicode="&#x145;" 
 />
    <glyph glyph-name="Ntilde" unicode="&#xd1;" horiz-adv-x="313" 
d="M195 4v401c0 43 -34 78 -77 78s-78 -35 -78 -78v-401c0 -2 -2 -4 -4 -4h-3c-2 0 -4 2 -4 4v401c0 49 40 89 89 89s88 -40 88 -89v-401c0 -2 -2 -4 -4 -4h-2c-3 0 -5 2 -5 4zM65 572h105c2 0 4 -2 4 -4v-3c0 -2 -2 -4 -4 -4h-105c-2 0 -4 2 -4 4v3c0 2 2 4 4 4z" />
    <glyph glyph-name="O" unicode="O" horiz-adv-x="314" 
d="M118 0c-49 0 -89 40 -89 89v316c0 49 40 89 89 89s88 -40 88 -89v-316c0 -49 -39 -89 -88 -89zM118 483c-43 0 -78 -35 -78 -78v-316c0 -43 35 -78 78 -78s78 35 78 78v316c0 43 -35 78 -78 78z" />
    <glyph glyph-name="Oacute" unicode="&#xd3;" horiz-adv-x="314" 
d="M118 0c49 0 88 40 88 89v316c0 49 -39 89 -88 89s-89 -40 -89 -89v-316c0 -49 40 -89 89 -89zM118 483c43 0 78 -35 78 -78v-316c0 -43 -35 -78 -78 -78s-78 35 -78 78v316c0 43 35 78 78 78zM125 562c-2 0 -3 2 -2 4l44 79c1 2 4 3 7 3h4c2 0 3 -1 2 -3l-44 -79
c-2 -2 -4 -4 -7 -4h-4z" />
    <glyph glyph-name="Obreve" unicode="&#x14e;" 
 />
    <glyph glyph-name="Ocircumflex" unicode="&#xd4;" horiz-adv-x="313" 
d="M118 0c49 0 88 40 88 89v316c0 49 -39 89 -88 89s-89 -40 -89 -89v-316c0 -49 40 -89 89 -89zM118 483c43 0 78 -35 78 -78v-316c0 -43 -35 -78 -78 -78s-78 35 -78 78v316c0 43 35 78 78 78zM52 562c-2 0 -3 2 -2 4l44 79c1 2 4 3 7 3h34c3 0 5 -1 7 -3l44 -79
c1 -2 0 -4 -2 -4h-4c-3 0 -6 2 -7 4l-40 72h-30l-41 -72c-1 -2 -4 -4 -6 -4h-4z" />
    <glyph glyph-name="Odieresis" unicode="&#xd6;" horiz-adv-x="314" 
d="M118 0c49 0 88 40 88 89v316c0 49 -39 89 -88 89s-89 -40 -89 -89v-316c0 -49 40 -89 89 -89zM118 483c43 0 78 -35 78 -78v-316c0 -43 -35 -78 -78 -78s-78 35 -78 78v316c0 43 35 78 78 78zM66 561c-3 0 -5 2 -5 4v37c0 2 2 4 5 4h2c2 0 4 -2 4 -4v-37
c0 -2 -2 -4 -4 -4h-2zM168 561c-2 0 -4 2 -4 4v37c0 2 2 4 4 4h2c3 0 5 -2 5 -4v-37c0 -2 -2 -4 -5 -4h-2z" />
    <glyph glyph-name="Ograve" unicode="&#xd2;" horiz-adv-x="314" 
d="M118 0c49 0 88 40 88 89v316c0 49 -39 89 -88 89s-89 -40 -89 -89v-316c0 -49 40 -89 89 -89zM118 483c43 0 78 -35 78 -78v-316c0 -43 -35 -78 -78 -78s-78 35 -78 78v316c0 43 35 78 78 78zM95 566l-44 79c-1 2 0 3 2 3h4c2 0 5 -1 6 -3l45 -79c1 -2 0 -4 -2 -4h-4
c-3 0 -6 2 -7 4z" />
    <glyph glyph-name="Ohungarumlaut" unicode="&#x150;" 
 />
    <glyph glyph-name="Omacron" unicode="&#x14c;" 
 />
    <glyph glyph-name="Oslash" unicode="&#xd8;" 
 />
    <glyph glyph-name="Oslashacute" unicode="&#x1fe;" 
 />
    <glyph glyph-name="Otilde" unicode="&#xd5;" 
 />
    <glyph glyph-name="OE" unicode="&#x152;" horiz-adv-x="1666" 
 />
    <glyph glyph-name="P" unicode="P" horiz-adv-x="293" 
d="M118 494c49 0 88 -40 88 -89v-74c0 -49 -39 -89 -88 -89h-78v-238c0 -2 -2 -4 -4 -4h-2c-3 0 -5 2 -5 4v238v0v11v0v236c0 3 2 5 5 5h84zM196 331v74c0 43 -35 78 -78 78h-78v-230h78c43 0 78 35 78 78z" />
    <glyph glyph-name="Q" unicode="Q" horiz-adv-x="314" 
d="M118 495c49 0 88 -40 88 -89v-317c0 -47 -37 -85 -83 -88v-59c0 -3 -2 -5 -4 -5h-2c-3 0 -5 2 -5 5v59c-46 3 -83 41 -83 88v317c0 49 40 89 89 89zM196 89v317c0 43 -35 78 -78 78s-78 -35 -78 -78v-317c0 -42 35 -77 78 -77s78 35 78 77z" />
    <glyph glyph-name="Q.alt" 
 />
    <glyph glyph-name="R" unicode="R" horiz-adv-x="308" 
d="M202 331c0 -39 -25 -71 -59 -84c34 -12 59 -44 59 -83v-160c0 -2 -2 -4 -5 -4h-2c-2 0 -4 2 -4 4v160c0 43 -35 78 -78 78h-78v-238c0 -2 -2 -4 -4 -4h-2c-3 0 -5 2 -5 4v484c0 3 3 6 6 6h83c49 0 89 -40 89 -89v-74zM113 253c43 0 78 35 78 78v74c0 43 -35 78 -78 78
h-78v-230h78z" />
    <glyph glyph-name="Racute" unicode="&#x154;" 
 />
    <glyph glyph-name="Rcaron" unicode="&#x158;" 
 />
    <glyph glyph-name="Rcommaaccent" unicode="&#x156;" 
 />
    <glyph glyph-name="R.alt" 
 />
    <glyph glyph-name="Racute.alt" 
 />
    <glyph glyph-name="Rcaron.alt" 
 />
    <glyph glyph-name="Rcommaaccent.alt" 
 />
    <glyph glyph-name="S" unicode="S" horiz-adv-x="293" 
d="M190 382c-2 0 -4 2 -4 4v19c0 43 -35 78 -78 78s-78 -35 -78 -78v-25v-1v0v-12c0 -4 2 -9 4 -12l156 -209c4 -5 6 -13 6 -19v-11h1v-2v-25c0 -24 -10 -46 -26 -63c-17 -17 -39 -26 -63 -26c-49 0 -89 40 -89 89v19c0 2 2 4 5 4h2c2 0 4 -2 4 -4v-19c0 -43 35 -78 78 -78
s78 35 78 78v26v-1v2v0v11c0 4 -2 9 -4 12l-156 209c-4 5 -6 13 -6 19v12h-1v26c0 24 10 46 26 63c17 17 39 26 63 26c49 0 89 -40 89 -89v-19c0 -2 -2 -4 -5 -4h-2zM19 379v0v0v0z" />
    <glyph glyph-name="Sacute" unicode="&#x15a;" 
 />
    <glyph glyph-name="Scaron" unicode="&#x160;" 
 />
    <glyph glyph-name="Scedilla" unicode="&#x15e;" 
 />
    <glyph glyph-name="Scircumflex" unicode="&#x15c;" 
 />
    <glyph glyph-name="Scommaaccent" unicode="&#x218;" 
 />
    <glyph glyph-name="T" unicode="T" horiz-adv-x="249" 
d="M80 4v479h-57c-2 0 -4 2 -4 4v2c0 3 2 5 4 5h124c2 0 4 -2 4 -5v-2c0 -2 -2 -4 -4 -4h-57v-479c0 -2 -1 -4 -4 -4h-2c-2 0 -4 2 -4 4z" />
    <glyph glyph-name="Tbar" unicode="&#x166;" 
 />
    <glyph glyph-name="Tcaron" unicode="&#x164;" 
 />
    <glyph glyph-name="Tcommaaccent" unicode="&#x162;" 
 />
    <glyph glyph-name="T_h" horiz-adv-x="1146" 
 />
    <glyph glyph-name="T_h.caron" 
 />
    <glyph glyph-name="T_h.commaaccent" 
 />
    <glyph glyph-name="U" unicode="U" horiz-adv-x="314" 
d="M29 89v400c0 3 2 5 5 5h2c2 0 4 -2 4 -5v-400c0 -43 35 -78 78 -78s78 35 78 78v400c0 3 2 5 4 5h2c2 0 4 -2 4 -5v-400c0 -49 -39 -89 -88 -89s-89 40 -89 89z" />
    <glyph glyph-name="Uacute" unicode="&#xda;" horiz-adv-x="314" 
d="M29 89c0 -49 40 -89 89 -89s88 40 88 89v400c0 3 -2 5 -4 5h-2c-2 0 -4 -2 -4 -5v-400c0 -43 -35 -78 -78 -78s-78 35 -78 78v400c0 3 -2 5 -4 5h-2c-3 0 -5 -2 -5 -5v-400zM125 562c-2 0 -3 2 -2 4l44 79c1 2 4 3 7 3h4c2 0 3 -1 2 -3l-44 -79c-2 -2 -4 -4 -7 -4h-4z
" />
    <glyph glyph-name="Ubreve" unicode="&#x16c;" 
 />
    <glyph glyph-name="Ucircumflex" unicode="&#xdb;" horiz-adv-x="314" 
d="M29 89c0 -49 40 -89 89 -89s88 40 88 89v400c0 3 -2 5 -4 5h-2c-2 0 -4 -2 -4 -5v-400c0 -43 -35 -78 -78 -78s-78 35 -78 78v400c0 3 -2 5 -4 5h-2c-3 0 -5 -2 -5 -5v-400zM52 562c-2 0 -3 2 -2 4l44 79c1 2 4 3 7 3h34c3 0 5 -1 7 -3l44 -79c1 -2 0 -4 -2 -4h-4
c-3 0 -6 2 -7 4l-40 72h-30l-41 -72c-1 -2 -4 -4 -6 -4h-4z" />
    <glyph glyph-name="Udieresis" unicode="&#xdc;" horiz-adv-x="314" 
d="M29 89c0 -49 40 -89 89 -89s88 40 88 89v400c0 3 -2 5 -4 5h-2c-2 0 -4 -2 -4 -5v-400c0 -43 -35 -78 -78 -78s-78 35 -78 78v400c0 3 -2 5 -4 5h-2c-3 0 -5 -2 -5 -5v-400zM66 561c-3 0 -5 2 -5 4v37c0 2 2 4 5 4h2c2 0 4 -2 4 -4v-37c0 -2 -2 -4 -4 -4h-2zM168 561
c-2 0 -4 2 -4 4v37c0 2 2 4 4 4h2c3 0 5 -2 5 -4v-37c0 -2 -2 -4 -5 -4h-2z" />
    <glyph glyph-name="Ugrave" unicode="&#xd9;" horiz-adv-x="314" 
d="M29 89c0 -49 40 -89 89 -89s88 40 88 89v400c0 3 -2 5 -4 5h-2c-2 0 -4 -2 -4 -5v-400c0 -43 -35 -78 -78 -78s-78 35 -78 78v400c0 3 -2 5 -4 5h-2c-3 0 -5 -2 -5 -5v-400zM95 566l-44 79c-1 2 0 3 2 3h4c2 0 5 -1 6 -3l45 -79c1 -2 0 -4 -2 -4h-4c-3 0 -6 2 -7 4z" />
    <glyph glyph-name="Uhungarumlaut" unicode="&#x170;" 
 />
    <glyph glyph-name="Umacron" unicode="&#x16a;" 
 />
    <glyph glyph-name="Uogonek" unicode="&#x172;" 
 />
    <glyph glyph-name="Uring" unicode="&#x16e;" 
 />
    <glyph glyph-name="Utilde" unicode="&#x168;" 
 />
    <glyph glyph-name="V" unicode="V" horiz-adv-x="314" 
d="M196 489c0 3 1 5 4 5h2c2 0 4 -2 4 -5v-348s0 -24 -11 -43l-55 -95c-1 -2 -2 -3 -4 -3h-36c-2 0 -4 1 -5 3l-54 95c-12 19 -12 43 -12 43v348c0 3 2 5 4 5h3c2 0 4 -2 4 -5v-348s0 -21 10 -37l53 -93h30l53 93c9 16 10 37 10 37v348z" />
    <glyph glyph-name="W" unicode="W" horiz-adv-x="480" 
d="M368 493c2 0 4 -2 4 -4v-348c0 -1 0 -24 -11 -43l-55 -96c-1 -1 -3 -2 -4 -2h-36c-2 0 -4 1 -5 2l-54 96c-3 4 -5 9 -6 13c-2 -4 -4 -9 -7 -13l-54 -96c-1 -1 -3 -2 -5 -2h-36c-1 0 -3 1 -4 2l-55 96c-11 19 -11 42 -11 43v348c0 2 2 4 4 4h2c3 0 5 -2 5 -4v-348
s0 -21 9 -38l54 -93h29l53 93c10 17 10 38 10 38v348c0 2 2 4 4 4h3c2 0 4 -2 4 -4v-348s0 -21 10 -38l53 -93h29l54 93c9 17 10 38 10 38v348c0 2 1 4 4 4h2z" />
    <glyph glyph-name="Wacute" unicode="&#x1e82;" 
 />
    <glyph glyph-name="Wcircumflex" unicode="&#x174;" 
 />
    <glyph glyph-name="Wdieresis" unicode="&#x1e84;" 
 />
    <glyph glyph-name="Wgrave" unicode="&#x1e80;" 
 />
    <glyph glyph-name="X" unicode="X" horiz-adv-x="314" 
d="M191 364v-1l-67 -118l67 -117v-1c10 -15 15 -32 15 -49v-73c0 -3 -2 -5 -4 -5h-2c-2 0 -4 2 -4 5v73c0 8 -2 17 -5 25v2l-73 129l-73 -129l-1 -2c-3 -8 -4 -17 -4 -25v-73c0 -3 -2 -5 -4 -5h-2c-3 0 -5 2 -5 5v73c0 17 5 34 15 49l1 1l66 117l-66 118l-1 1
c-10 14 -15 31 -15 49v76c0 3 2 5 5 5h2c2 0 4 -2 4 -5v-76c0 -9 1 -17 4 -25l1 -3l73 -128l73 128v3c3 8 5 16 5 25v76c0 3 2 5 4 5h2c2 0 4 -2 4 -5v-76c0 -18 -5 -35 -15 -49z" />
    <glyph glyph-name="Y" unicode="Y" horiz-adv-x="294" 
d="M191 494c3 0 5 -2 5 -5v-158c0 -47 -37 -86 -83 -89v-238c0 -2 -2 -4 -5 -4h-2c-2 0 -4 2 -4 4v238c-47 3 -83 42 -83 89v158c0 3 2 5 4 5h2c2 0 4 -2 4 -5v-158c0 -43 35 -78 78 -78s78 35 78 78v158c0 3 2 5 4 5h2z" />
    <glyph glyph-name="Yacute" unicode="&#xdd;" 
 />
    <glyph glyph-name="Ycircumflex" unicode="&#x176;" 
 />
    <glyph glyph-name="Ydieresis" unicode="&#x178;" 
 />
    <glyph glyph-name="Ygrave" unicode="&#x1ef2;" 
 />
    <glyph glyph-name="Z" unicode="Z" horiz-adv-x="303" 
d="M40 127v-116h163c2 0 4 -2 4 -4v-2c0 -3 -2 -5 -4 -5h-169c-3 0 -5 2 -5 5v122c0 6 3 14 7 19l156 209c2 3 4 8 4 12v116h-163c-2 0 -4 2 -4 4v2c0 3 2 5 4 5h169c2 0 4 -2 4 -5v-122c0 -6 -2 -14 -6 -19l-156 -209c-2 -3 -4 -8 -4 -12z" />
    <glyph glyph-name="Zacute" unicode="&#x179;" 
 />
    <glyph glyph-name="Zcaron" unicode="&#x17d;" 
 />
    <glyph glyph-name="Zdotaccent" unicode="&#x17b;" 
 />
    <glyph glyph-name="Asmall" horiz-adv-x="0" 
 />
    <glyph glyph-name="Aacutesmall" horiz-adv-x="0" 
 />
    <glyph glyph-name="Abreve.small" 
 />
    <glyph glyph-name="Acircumflexsmall" horiz-adv-x="0" 
 />
    <glyph glyph-name="Adieresissmall" horiz-adv-x="0" 
 />
    <glyph glyph-name="Agravesmall" horiz-adv-x="0" 
 />
    <glyph glyph-name="Amacron.small" 
 />
    <glyph glyph-name="Aogonek.small" 
 />
    <glyph glyph-name="Aringsmall" horiz-adv-x="0" 
 />
    <glyph glyph-name="Atildesmall" horiz-adv-x="0" 
 />
    <glyph glyph-name="AEsmall" horiz-adv-x="0" 
 />
    <glyph glyph-name="AEacute.small" 
 />
    <glyph glyph-name="Bsmall" horiz-adv-x="0" 
 />
    <glyph glyph-name="Csmall" horiz-adv-x="0" 
 />
    <glyph glyph-name="Cacute.small" 
 />
    <glyph glyph-name="Ccaron.small" 
 />
    <glyph glyph-name="Ccedillasmall" horiz-adv-x="0" 
 />
    <glyph glyph-name="Ccircumflex.small" 
 />
    <glyph glyph-name="Cdotaccent.small" 
 />
    <glyph glyph-name="Dsmall" horiz-adv-x="0" 
 />
    <glyph glyph-name="Dcaron.small" 
 />
    <glyph glyph-name="Dcroat.small" 
 />
    <glyph glyph-name="Esmall" horiz-adv-x="0" 
 />
    <glyph glyph-name="Eacutesmall" horiz-adv-x="0" 
 />
    <glyph glyph-name="Ebreve.small" 
 />
    <glyph glyph-name="Ecaron.small" 
 />
    <glyph glyph-name="Ecircumflexsmall" horiz-adv-x="0" 
 />
    <glyph glyph-name="Edieresissmall" horiz-adv-x="0" 
 />
    <glyph glyph-name="Edotaccent.small" 
 />
    <glyph glyph-name="Egravesmall" horiz-adv-x="0" 
 />
    <glyph glyph-name="Emacron.small" 
 />
    <glyph glyph-name="Eogonek.small" 
 />
    <glyph glyph-name="Fsmall" horiz-adv-x="0" 
 />
    <glyph glyph-name="Gsmall" horiz-adv-x="0" 
 />
    <glyph glyph-name="Gbreve.small" 
 />
    <glyph glyph-name="Gcircumflex.small" 
 />
    <glyph glyph-name="Gcommaaccent.small" 
 />
    <glyph glyph-name="Gdotaccent.small" 
 />
    <glyph glyph-name="Hsmall" horiz-adv-x="0" 
 />
    <glyph glyph-name="Hbar.small" 
 />
    <glyph glyph-name="Hcircumflex.small" 
 />
    <glyph glyph-name="Ismall" horiz-adv-x="0" 
 />
    <glyph glyph-name="Iacutesmall" horiz-adv-x="0" 
 />
    <glyph glyph-name="Ibreve.small" 
 />
    <glyph glyph-name="Icircumflexsmall" horiz-adv-x="0" 
 />
    <glyph glyph-name="Idieresissmall" horiz-adv-x="0" 
 />
    <glyph glyph-name="Idotaccent.small" 
 />
    <glyph glyph-name="Igravesmall" horiz-adv-x="0" 
 />
    <glyph glyph-name="Imacron.small" 
 />
    <glyph glyph-name="Iogonek.small" 
 />
    <glyph glyph-name="Itilde.small" 
 />
    <glyph glyph-name="IJ.small" 
 />
    <glyph glyph-name="Jsmall" horiz-adv-x="0" 
 />
    <glyph glyph-name="Jcircumflex.small" 
 />
    <glyph glyph-name="Ksmall" horiz-adv-x="0" 
 />
    <glyph glyph-name="Kcommaaccent.small" 
 />
    <glyph glyph-name="Ksmall.alt" horiz-adv-x="0" 
 />
    <glyph glyph-name="Kcommaaccent.smallalt" 
 />
    <glyph glyph-name="Lsmall" horiz-adv-x="0" 
 />
    <glyph glyph-name="Lacute.small" 
 />
    <glyph glyph-name="Lcaron.small" 
 />
    <glyph glyph-name="Lcommaaccent.small" 
 />
    <glyph glyph-name="Ldot.small" 
 />
    <glyph glyph-name="Lslashsmall" horiz-adv-x="0" 
 />
    <glyph glyph-name="acute" unicode="&#xb4;" horiz-adv-x="220" 
d="M29 562c-2 0 -3 2 -2 4l44 79c1 2 4 3 7 3h4c2 0 3 -1 2 -3l-44 -79c-2 -2 -4 -4 -7 -4h-4z" />
    <glyph glyph-name="breve" unicode="&#x2d8;" 
 />
    <glyph glyph-name="cyrbreve" horiz-adv-x="0" 
 />
    <glyph glyph-name="caron" unicode="&#x2c7;" 
 />
    <glyph glyph-name="cedilla" unicode="&#xb8;" 
 />
    <glyph glyph-name="circumflex" unicode="&#x2c6;" 
 />
    <glyph glyph-name="commaaccent" horiz-adv-x="144" 
 />
    <glyph glyph-name="undercommaaccent" horiz-adv-x="0" 
 />
    <glyph glyph-name="dieresisacute" horiz-adv-x="0" 
 />
    <glyph glyph-name="dieresisgrave" horiz-adv-x="0" 
 />
    <glyph glyph-name="dotaccent" unicode="&#x2d9;" 
 />
    <glyph glyph-name="hungarumlaut" unicode="&#x2dd;" horiz-adv-x="440" 
 />
    <glyph glyph-name="dblgrave" horiz-adv-x="0" 
 />
    <glyph glyph-name="cyrflex" horiz-adv-x="0" 
 />
    <glyph glyph-name="macron" unicode="&#xaf;" 
 />
    <glyph glyph-name="ogonek" unicode="&#x2db;" 
 />
    <glyph glyph-name="ring" unicode="&#x2da;" 
 />
    <glyph glyph-name="tilde" unicode="&#x2dc;" 
 />
    <glyph glyph-name="Acute" horiz-adv-x="0" 
 />
    <glyph glyph-name="Breve" horiz-adv-x="0" 
 />
    <glyph glyph-name="cyrBreve" horiz-adv-x="0" 
 />
    <glyph glyph-name="Caron" horiz-adv-x="0" 
 />
    <glyph glyph-name="Cedilla" horiz-adv-x="0" 
 />
    <glyph glyph-name="Circumflex" horiz-adv-x="0" 
 />
    <glyph glyph-name="commaaccent.cap" horiz-adv-x="144" 
 />
    <glyph glyph-name="Dieresis" horiz-adv-x="0" 
 />
    <glyph glyph-name="DieresisAcute" horiz-adv-x="0" 
 />
    <glyph glyph-name="DieresisGrave" horiz-adv-x="0" 
 />
    <glyph glyph-name="Dotaccent" horiz-adv-x="0" 
 />
    <glyph glyph-name="Hungarumlaut" horiz-adv-x="0" 
 />
    <glyph glyph-name="Grave" horiz-adv-x="0" 
 />
    <glyph glyph-name="dblGrave" horiz-adv-x="0" 
 />
    <glyph glyph-name="cyrFlex" horiz-adv-x="0" 
 />
    <glyph glyph-name="Macron" horiz-adv-x="0" 
 />
    <glyph glyph-name="Ogonek" horiz-adv-x="0" 
 />
    <glyph glyph-name="Ring" horiz-adv-x="0" 
 />
    <glyph glyph-name="Tilde" horiz-adv-x="0" 
 />
    <glyph glyph-name="Acutesmall" horiz-adv-x="0" 
 />
    <glyph glyph-name="Brevesmall" horiz-adv-x="0" 
 />
    <glyph glyph-name="Caronsmall" horiz-adv-x="0" 
 />
    <glyph glyph-name="Cedillasmall" horiz-adv-x="0" 
 />
    <glyph glyph-name="Circumflexsmall" horiz-adv-x="0" 
 />
    <glyph glyph-name="commaaccent.small" horiz-adv-x="144" 
 />
    <glyph glyph-name="Dieresissmall" horiz-adv-x="0" 
 />
    <glyph glyph-name="DieresisAcute.small" horiz-adv-x="0" 
 />
    <glyph glyph-name="DieresisGrave.small" horiz-adv-x="0" 
 />
    <glyph glyph-name="Dotaccentsmall" horiz-adv-x="0" 
 />
    <glyph glyph-name="Hungarumlautsmall" horiz-adv-x="0" 
 />
    <glyph glyph-name="Gravesmall" horiz-adv-x="0" 
 />
    <glyph glyph-name="dblGrave.small" horiz-adv-x="0" 
 />
    <glyph glyph-name="Macronsmall" horiz-adv-x="0" 
 />
    <glyph glyph-name="Ogoneksmall" horiz-adv-x="0" 
 />
    <glyph glyph-name="Ringsmall" horiz-adv-x="0" 
 />
    <glyph glyph-name="Tildesmall" horiz-adv-x="0" 
 />
    <glyph glyph-name="middot" unicode="&#xb7;" 
 />
    <glyph glyph-name="dieresis" unicode="&#xa8;" horiz-adv-x="249" 
d="M34 561c-3 0 -5 2 -5 4v37c0 2 2 4 5 4h2c2 0 4 -2 4 -4v-37c0 -2 -2 -4 -4 -4h-2zM136 561c-2 0 -4 2 -4 4v37c0 2 2 4 4 4h2c3 0 5 -2 5 -4v-37c0 -2 -2 -4 -5 -4h-2z" />
    <glyph glyph-name="grave" unicode="`" horiz-adv-x="221" 
d="M72 566l-44 79c-1 2 0 3 2 3h4c2 0 5 -1 6 -3l45 -79c1 -2 0 -4 -2 -4h-4c-3 0 -6 2 -7 4z" />
    <glyph glyph-name="Ecaron" unicode="&#x11a;" horiz-adv-x="250" 
 />
    <glyph glyph-name="euro" unicode="&#x20ac;" horiz-adv-x="379" 
d="M262 385v19c0 43 -35 78 -78 78s-78 -35 -78 -78v-88h62c2 0 4 -2 4 -5v-2c0 -2 -2 -4 -4 -4h-62v-117h62c2 0 4 -2 4 -5v-2c0 -2 -2 -4 -4 -4h-62v-89c0 -43 35 -78 78 -78s78 35 78 78v23c0 2 1 4 4 4h2c2 0 4 -2 4 -4v-23c0 -49 -40 -88 -88 -88c-49 0 -89 39 -89 88
v89h-62c-2 0 -4 2 -4 4v2c0 3 2 5 4 5h62v117h-62c-2 0 -4 2 -4 4v2c0 3 2 5 4 5h62v88c0 49 40 89 89 89c48 0 88 -40 88 -89v-7v0v-12c0 -2 -2 -4 -4 -4h-2c-3 0 -4 2 -4 4z" />
    </font>
</defs>
</svg>
